<?xml version="1.0" encoding="iso-8859-1"?>
<!-- Generator: Adobe Illustrator 16.0.0, SVG Export Plug-In . SVG Version: 6.00 Build 0)  -->
<!DOCTYPE svg PUBLIC "-//W3C//DTD SVG 1.1//EN" "http://www.w3.org/Graphics/SVG/1.1/DTD/svg11.dtd">
<svg xmlns="http://www.w3.org/2000/svg" xmlns:xlink="http://www.w3.org/1999/xlink" version="1.1" id="Capa_1" x="0px" y="0px" width="512px" height="512px" viewBox="0 0 584.432 584.432" style="enable-background:new 0 0 584.432 584.432;" xml:space="preserve">
<g>
	<g>
		<path d="M579.443,194.74c-11.22-9.286-3.868-22.828-22.444-26.7c-13.378-2.787-15.903-1.562-16.274-0.657    c-0.172-3.125-1.686-16.394-15.067-7.471c0,0-7.353-1.934-6.189,7.353c0,0-15.092,4.643-27.088,13.542    c-11.995,8.898-58.43,28.633-124.595,11.995s-123.82-39.083-172.964-5.031c0,0-50.302,24.766-73.518,77.002    c-23.215,52.237-53.011,68.104-94.799,67.329c-41.792-0.775-28.246,41.791,0,25.537c28.246-16.251,63.844,1.934,98.283-51.849    c34.439-53.788,32.118-70.426,53.787-82.421c0,0,3.097,20.894,41.016,42.175c0,0-19.347,11.995-15.479,18.572    c3.868,6.576,15.092,22.444,15.092,22.444s-9.674,6.577-5.418,12.383s32.889,34.439,35.598,39.47    c2.709,5.031,15.092,28.634,23.215,23.991c0,0,8.127,10.061,13.542,6.189c0,0,14.317-1.935,2.709-16.639    s-14.317-17.025-14.317-17.025s11.22-13.542-18.572-42.95c0,0,48.757-31.343,43.726-42.951    c-5.03-11.608,46.047,53.011,70.809,35.21c0,0-20.894,34.052-23.215,47.593c-2.321,13.542-16.063,33.375-36.761,34.439    c0,0-20.124-0.388-15.092,36.373c0,0,6.576,9.286,10.061,2.322c3.484-6.965,7.74-17.026,17.414-21.281    c9.674-4.256,32.501-10.833,43.338-35.211C377.075,344.097,403,324.361,403,324.361s22.444,43.726,22.444,47.594    s-18.572,16.251-20.123,24.766c0,0-18.572,14.316-12.771,18.96c0,0,2.321,11.607,12.771,3.484    c10.449-8.124,19.735-15.479,25.924-18.96c6.189-3.484,6.965-8.511,14.317-16.639c7.352-8.127,2.709-16.638-3.097-28.245    c-5.806-11.608-8.511-39.471-8.511-39.471s36.373-8.567,42.562-23.631c6.189-15.063,26.312-41.375,38.307-51.049    c11.995-9.673,35.985-12.383,40.629-17.413c0,0,13.158,9.286,18.572-3.484l-2.321-2.709c0,0,7.739-2.322,7.739-7.74    C579.443,209.828,590.667,204.026,579.443,194.74z" fill="#FFFFFF"/>
	</g>
</g>
<g>
</g>
<g>
</g>
<g>
</g>
<g>
</g>
<g>
</g>
<g>
</g>
<g>
</g>
<g>
</g>
<g>
</g>
<g>
</g>
<g>
</g>
<g>
</g>
<g>
</g>
<g>
</g>
<g>
</g>
</svg>
